# xmcd
#
# Track frame offsets:
#	150
#	21852
#	42705
#	65402
#	85520
#	108885
#	129222
#	149862
#	171745
#	193887
#	217267
#	240315
#	258265
#	278842
#
# Disc length: 4021 seconds
#
# Revision: 5
# Processed by: cddbd v1.5.2PL0 Copyright (c) Steve Scherf et al.
# Submitted via: EasyCDDAExtractor 10.0.5.1
#
DISCID=d60fb30e
DTITLE=張信哲 - 選哲-精選輯
DYEAR=2002
DGENRE=國語流行
TTITLE0=太想愛你
TTITLE1=改變
TTITLE2=過火
TTITLE3=已經結束了
TTITLE4=受罪
TTITLE5=真愛一生
TTITLE6=Missing
TTITLE7=不要對他說
TTITLE8=且行且珍惜
TTITLE9=用情
TTITLE10=我是真的
TTITLE11=背叛
TTITLE12=逃
TTITLE13=Stars
EXTD=YEAR: 2002
EXTT0=
EXTT1=
EXTT2=
EXTT3=
EXTT4=
EXTT5=
EXTT6=
EXTT7=
EXTT8=
EXTT9=
EXTT10=
EXTT11=
EXTT12=
EXTT13=
PLAYORDER=
